# xmcd CD database file
#
# Track frame offsets:
#	150
#	16175
#	33300
#	52000
#	69437
#	90250
#	114537
#	135487
#	152737
#	170412
#	188100
#	207400
#	228700
#
# Disc length: 3257 seconds
#
# Revision: 0
# Processed by: cddbd v1.4PL0 Copyright (c) Steve Scherf et al.
# Submitted via: CDex 1.51
#
DISCID=a70cb70d
DTITLE=Dana Gillespie - Her Hits and most important songs
DYEAR=1998
DGENRE=Blues
TTITLE0=Oh What A Night
TTITLE1=The Air That I Breathe
TTITLE2=Method Of Release
TTITLE3=Love Is A Strange Thing
TTITLE4=Know My Love
TTITLE5=Round About Midnight
TTITLE6=In Danger Tonight
TTITLE7=The Good Thing
TTITLE8=Some Enchanted Evening
TTITLE9=Still Around
TTITLE10=Love With A Stranger
TTITLE11=Don't Touch Me There
TTITLE12=Overseas Male
EXTD=YEAR: 1998
EXTT0=
EXTT1=
EXTT2=
EXTT3=
EXTT4=
EXTT5=
EXTT6=
EXTT7=
EXTT8=
EXTT9=
EXTT10=
EXTT11=
EXTT12=
PLAYORDER=
